# xmcd
#
# Track frame offsets:
# 150
# 12399
# 23466
# 34305
# 48540
# 60319
# 74193
# 84681
# 95780
# 108955
# 121525
# 133840
# 145797
# 157385
# 171270
# 182969
# 197304
# 207080
# 222305
# 235248
#
# Disc length: 3310 seconds
#
#
# Revision: 0
# Processed by: cddbd v1.4PL0 Copyright (c) Steve Scherf et al.
# Submitted via: FreeRIP 2.51 
#
DISCID=250cec14
DTITLE=Various Artist - The Country Collection V. 2
DYEAR=1900
DGENRE=Country
TTITLE0=High Noon (Tex Ritter)
TTITLE1=Lonesome Whistle (Hank Williams)
TTITLE2=Country Girl (Faron Young)
TTITLE3=Mexicali Rose (Gene Autry)
TTITLE4=Don't Rob Another Man's Castle (Eddie Arnold)
TTITLE5=I'm Thinking Tonight of my Blue Eyes (Carter Family)
TTITLE6=Bluegrass Breakdown (Bill Monroe)
TTITLE7=Crazy Heart (Hank Williams)
TTITLE8=My San Antonio Rose (Hank Snow)
TTITLE9=Way Out West in Texas (Gene Autry)
TTITLE10=Sing Cowboy Sing (Tex Ritter)
TTITLE11=You're Still Mine (Faron Young)
TTITLE12=Bouquet of Roses (Eddie Arnold)
TTITLE13=Cattle Call (Tex Ritter)
TTITLE14=Back in the Saddle Again  (Gene Autry)
TTITLE15=Wildwood Flower (Carter Family)
TTITLE16=I've Got Five Dollars and it's Saturday Night (Faron Young)
TTITLE17=Tumbling Tumbllllllleeweeds (Gene Autry)
TTITLE18=Keep on the Sunny Side (Carter Family)
TTITLE19=Hey Good Lookin'  (Hank Williams)
EXTD=
EXTT0=
EXTT1=
EXTT2=
EXTT3=
EXTT4=
EXTT5=
EXTT6=
EXTT7=
EXTT8=
EXTT9=
EXTT10=
EXTT11=
EXTT12=
EXTT13=
EXTT14=
EXTT15=
EXTT16=
EXTT17=
EXTT18=
EXTT19=
PLAYORDER=
